<svg id="Group_123" data-name="Group 123" xmlns="http://www.w3.org/2000/svg" xmlns:xlink="http://www.w3.org/1999/xlink" width="89.138" height="86.164" viewBox="0 0 89.138 86.164">
  <defs>
    <clipPath id="clip-path">
      <rect id="Rectangle_517" data-name="Rectangle 517" width="89.138" height="86.164" fill="#e5fbff"/>
    </clipPath>
  </defs>
  <g id="Group_122" data-name="Group 122" transform="translate(0 0)" clip-path="url(#clip-path)">
    <path id="Path_2172" data-name="Path 2172" d="M16.1,66.009,0,45.57l5.68-5.825c3.124-3.2,13.145-13.458,22.266-22.789L44.529,0,59.463,15.259c8.213,8.392,18.253,18.646,22.3,22.789l7.37,7.526L73.116,65.868C64.3,77.03,57,86.074,56.9,85.968s2.975-8.247,6.855-18.089S70.8,49.686,70.8,49.316s-3.22-4.059-7.156-8.194L56.492,33.6,50.884,50.754C47.8,60.188,45.1,68.344,44.876,68.878c-.305.732-1.514-2.415-4.955-12.867-2.5-7.61-5.112-15.64-5.8-17.845S32.7,34.16,32.482,34.16A102.824,102.824,0,0,0,25,41.614l-7.088,7.45,7.263,18.4c3.994,10.12,7.21,18.532,7.145,18.692S24.956,77.251,16.1,66.009" transform="translate(0 0.004)" fill="#e5fbff"/>
  </g>
</svg>
